<svg width="25" height="25" viewBox="0 0 25 25" fill="none" xmlns="http://www.w3.org/2000/svg">
<g clip-path="url(#clip0_129_4352)">
<path d="M3.70705 13.0734H2.50878C2.3026 13.0737 2.12555 13.2201 2.08637 13.4225L0.198447 23.1121C0.149461 23.3652 0.216334 23.627 0.380725 23.8256C0.545116 24.0242 0.789768 24.1388 1.04758 24.138H10.345C10.345 24.6121 11.3105 25.0001 12.5001 25.0001C13.6898 25.0001 14.6553 24.6121 14.6553 24.138H23.9527C24.2105 24.1388 24.4551 24.0242 24.6195 23.8256C24.7839 23.627 24.8508 23.3652 24.8018 23.1121L22.9139 13.4225C22.8747 13.2201 22.6976 13.0737 22.4915 13.0734H3.70705Z" fill="#E64C3C"/>
<path d="M12.5 14.3274V22.4136C11.8694 22.1397 11.2121 21.9317 10.5388 21.7929C7.97916 21.2364 5.31751 21.3718 2.82759 22.1851C2.68447 22.2288 2.52895 22.1957 2.41596 22.0976C2.30298 21.9995 2.24842 21.8502 2.27155 21.7024L3.70689 13.0731L3.82758 12.3447C3.85847 12.1598 4.00443 12.0156 4.18965 11.9869C4.48275 11.9438 4.78447 11.9007 5.0862 11.8662C5.61291 12.8901 6.66754 13.5338 7.81894 13.5343C7.89653 13.5343 7.96981 13.53 8.04308 13.5257C8.3301 13.5033 8.61281 13.4424 8.8836 13.3447C8.88449 13.3538 8.88744 13.3627 8.89222 13.3705C9.21473 14.2738 10.071 14.8763 11.0301 14.8748C11.5702 14.8766 12.0926 14.6821 12.5 14.3274Z" fill="#F5EFCA"/>
<path d="M22.1724 22.1847C19.6824 21.3714 17.0208 21.236 14.4612 21.7925C13.7878 21.9313 13.1306 22.1393 12.5 22.4132V14.327C12.5906 14.2529 12.6743 14.1707 12.75 14.0813C13.1807 14.2526 13.64 14.3404 14.1034 14.3399H14.1293C14.1517 14.6481 14.2692 14.9418 14.4655 15.1805C14.8839 15.594 15.4069 15.8861 15.9784 16.0253C16.3932 16.1577 16.7632 16.4024 17.0474 16.7322C17.3008 17.0461 17.7301 17.1564 18.1034 17.0037C18.4321 16.8617 18.6454 16.5385 18.6465 16.1804C18.647 16.0868 18.6324 15.9937 18.6034 15.9046C18.5603 15.771 18.5129 15.6373 18.4569 15.508C18.3488 15.241 18.2068 14.9889 18.0345 14.758C18.8893 14.2957 19.4897 13.472 19.6681 12.5167C19.681 12.4994 19.6982 12.4822 19.7112 12.4649C19.8587 12.2914 19.9793 12.0967 20.0689 11.8874C20.3189 11.9175 20.5646 11.9477 20.8103 11.9865C20.9955 12.0152 21.1415 12.1594 21.1724 12.3443L21.2931 13.0727L22.7284 21.702C22.7515 21.8498 22.697 21.9991 22.584 22.0972C22.471 22.1953 22.3155 22.2284 22.1724 22.1847Z" fill="#F9EAB0"/>
<path d="M14.6553 24.1381C14.6553 24.6123 13.6897 25.0002 12.5001 25.0002C11.3104 25.0002 10.3449 24.6123 10.3449 24.1381L10.5389 21.7933C11.2123 21.9321 11.8695 22.1401 12.5001 22.414C13.1307 22.1401 13.7879 21.9321 14.4613 21.7933L14.6553 24.1381Z" fill="#C03A2B"/>
<path d="M20.2588 10.987C20.2584 11.2971 20.1938 11.6038 20.0691 11.8878C19.9795 12.0972 19.8589 12.2919 19.7114 12.4654C19.6984 12.4827 19.6812 12.4999 19.6682 12.5171C19.4898 13.4725 18.8895 14.2962 18.0346 14.7585C18.207 14.9894 18.349 15.2414 18.457 15.5085C18.5131 15.6378 18.5605 15.7714 18.6036 15.9051C18.6326 15.9941 18.6472 16.0873 18.6467 16.1809C18.6455 16.5389 18.4323 16.8622 18.1036 17.0042C17.7303 17.1569 17.3009 17.0465 17.0476 16.7326C16.7633 16.4028 16.3934 16.1582 15.9786 16.0257C15.407 15.8865 14.8841 15.5945 14.4657 15.1809C14.2693 14.9423 14.1519 14.6486 14.1295 14.3404H14.1036C13.6401 14.3408 13.1808 14.2531 12.7502 14.0818C12.6745 14.1711 12.5908 14.2534 12.5002 14.3275C12.0928 14.6821 11.5705 14.8767 11.0303 14.8749C10.0712 14.8764 9.21494 14.2739 8.89243 13.3706C8.88764 13.3627 8.8847 13.3539 8.88381 13.3447C8.61302 13.4425 8.33031 13.5034 8.04329 13.5258C7.97002 13.5301 7.89674 13.5344 7.81915 13.5344C6.65419 13.5336 5.58939 12.8755 5.06767 11.8339C4.54595 10.7923 4.65662 9.54542 5.35365 8.61198C5.3018 8.47122 5.27552 8.32233 5.27606 8.17233C5.27347 7.53533 5.72089 6.98507 6.34502 6.85768C6.34735 6.85534 6.35037 6.85382 6.35364 6.85337C6.34933 6.80164 6.34502 6.74992 6.34502 6.69388C6.34445 6.45482 6.39439 6.21834 6.49157 5.99992C6.76659 5.36386 7.39343 4.95219 8.08639 4.95251C8.34774 4.95127 8.60585 5.01027 8.8407 5.12493C9.29958 4.35234 10.1318 3.87891 11.0303 3.87924C11.6469 3.877 12.2425 4.10266 12.7028 4.51286C12.967 4.08665 13.4476 3.84426 13.9474 3.88516C14.4472 3.92605 14.882 4.24334 15.0734 4.70682C15.1965 4.69308 15.3203 4.68588 15.4441 4.68527C17.1142 4.68804 18.504 5.9692 18.6424 7.63354H18.6553C19.0105 7.63353 19.351 7.7749 19.6017 8.02642C19.8524 8.27794 19.9927 8.61892 19.9915 8.97405C19.9907 9.20628 19.9314 9.43456 19.8191 9.63784C20.1052 10.0295 20.2591 10.502 20.2588 10.987Z" fill="#FB7B76"/>
<path d="M12.5001 1.2931C12.2621 1.2931 12.0691 1.10012 12.0691 0.862066V0.431033C12.0691 0.19298 12.2621 0 12.5001 0C12.7382 0 12.9311 0.19298 12.9311 0.431033V0.862066C12.9311 1.10012 12.7382 1.2931 12.5001 1.2931Z" fill="#F0C419"/>
<path d="M19.447 4.26043C19.2727 4.26039 19.1156 4.15537 19.0489 3.99433C18.9822 3.83329 19.019 3.64793 19.1423 3.52466L19.5733 3.09362C19.6815 2.98157 19.8418 2.93664 19.9925 2.97608C20.1432 3.01553 20.2609 3.13322 20.3003 3.28392C20.3398 3.43462 20.2948 3.59488 20.1828 3.7031L19.7517 4.13414C19.6709 4.21498 19.5613 4.26041 19.447 4.26043Z" fill="#F0C419"/>
<path d="M5.55355 4.26043C5.43924 4.26041 5.32963 4.21498 5.24881 4.13414L4.81778 3.7031C4.70573 3.59488 4.66079 3.43462 4.70024 3.28392C4.73968 3.13322 4.85737 3.01553 5.00808 2.97608C5.15878 2.93664 5.31904 2.98157 5.42726 3.09362L5.85829 3.52466C5.98153 3.64793 6.01839 3.83329 5.95169 3.99433C5.88499 4.15537 5.72786 4.26039 5.55355 4.26043Z" fill="#F0C419"/>
<path d="M8.8713 2.446C8.69698 2.44604 8.53979 2.34108 8.47302 2.18005L7.9782 0.985227C7.91529 0.842263 7.93464 0.676451 8.02878 0.551816C8.12292 0.427182 8.27713 0.36323 8.43185 0.384655C8.58656 0.40608 8.71759 0.509529 8.77432 0.655056L9.26957 1.84988C9.31352 1.95555 9.31363 2.07437 9.26989 2.18013C9.22615 2.28589 9.14214 2.36991 9.03638 2.41367C8.98397 2.43503 8.9279 2.44601 8.8713 2.446Z" fill="#F0C419"/>
<path d="M16.1288 2.446C16.0721 2.44588 16.0161 2.43475 15.9637 2.41324C15.858 2.36948 15.7741 2.28553 15.7304 2.17987C15.6867 2.07421 15.6867 1.9555 15.7305 1.84988L16.2258 0.655056C16.2825 0.509529 16.4135 0.40608 16.5682 0.384655C16.723 0.36323 16.8772 0.427182 16.9713 0.551816C17.0654 0.676451 17.0848 0.842263 17.0219 0.985227L16.5271 2.18005C16.4603 2.34108 16.3031 2.44604 16.1288 2.446Z" fill="#F0C419"/>
<path d="M21.2607 7.5784C21.0546 7.57903 20.8769 7.43364 20.8366 7.23148C20.7964 7.02932 20.9049 6.82698 21.0956 6.74866L22.2904 6.25383C22.4327 6.19493 22.5956 6.21641 22.7178 6.31019C22.8399 6.40397 22.9028 6.55579 22.8827 6.70846C22.8625 6.86114 22.7625 6.99148 22.6202 7.05038L21.4258 7.54521C21.3735 7.56702 21.3174 7.5783 21.2607 7.5784Z" fill="#F0C419"/>
<path d="M3.73945 7.5784C3.68278 7.5783 3.62668 7.56702 3.57437 7.54521L2.37998 7.05038C2.23769 6.99148 2.13763 6.86114 2.1175 6.70846C2.09736 6.55579 2.16021 6.40397 2.28237 6.31019C2.40452 6.21641 2.56743 6.19493 2.70972 6.25383L3.90454 6.74866C4.0952 6.82698 4.20373 7.02932 4.16351 7.23148C4.12329 7.43364 3.94557 7.57903 3.73945 7.5784Z" fill="#F0C419"/>
<path d="M19.7118 12.4654C19.6989 12.4826 19.6817 12.4999 19.6687 12.5171C19.5928 12.9322 19.4345 13.3279 19.2032 13.6809C18.9775 13.745 18.7439 13.7769 18.5093 13.7757C18.0821 13.7745 17.6612 13.6726 17.2808 13.4783C17.1007 13.382 16.9316 13.2663 16.7765 13.1335C16.6046 13.2001 16.4221 13.2351 16.2377 13.2369C15.6684 13.2399 15.1468 12.9189 14.8929 12.4094C14.8236 12.2715 14.8331 12.1072 14.9178 11.9783C15.0025 11.8494 15.1496 11.7754 15.3036 11.7843C15.4576 11.7932 15.5951 11.8836 15.6644 12.0214C15.7496 12.1849 15.9004 12.3042 16.079 12.3495C16.2576 12.3947 16.4471 12.3616 16.5998 12.2585C16.7722 12.1408 16.8754 11.9457 16.8756 11.7369C16.8763 11.637 16.8542 11.5383 16.811 11.4482C16.7242 11.2397 16.8129 10.9997 17.0144 10.8978C17.2159 10.7959 17.4618 10.8668 17.5782 11.0602C17.683 11.2704 17.7376 11.5021 17.7377 11.7369C17.7342 12.0381 17.6395 12.3312 17.4662 12.5775C17.5351 12.6249 17.6041 12.6723 17.673 12.7111C17.9317 12.8442 18.2184 12.9137 18.5093 12.9137C18.9514 12.9161 19.3792 12.7567 19.7118 12.4654Z" fill="#FF5364"/>
<path d="M14.4402 10.7725C14.9986 10.3878 15.3826 9.79826 15.5087 9.13201C15.5408 8.97948 15.4881 8.82151 15.3708 8.71887C15.2535 8.61623 15.0899 8.58492 14.943 8.63697C14.7961 8.68903 14.6887 8.81634 14.6622 8.96994C14.5777 9.4145 14.3212 9.80777 13.9484 10.0643C13.2313 10.5473 12.2695 10.4377 11.6794 9.80571C11.5189 9.62955 11.2459 9.61691 11.0697 9.77748C10.8936 9.93805 10.8809 10.211 11.0415 10.3872C11.4071 10.7909 11.8904 11.0695 12.423 11.1837C12.1815 11.5231 11.7904 11.7243 11.3738 11.7234C11.1358 11.7234 10.9428 11.9164 10.9428 12.1544C10.9428 12.3925 11.1358 12.5854 11.3738 12.5854C12.2661 12.589 13.0668 12.0379 13.382 11.2031C13.7623 11.1399 14.1238 10.9928 14.4402 10.7725Z" fill="#FF5364"/>
<path d="M18.4572 15.5088C18.1403 15.6704 17.7999 15.781 17.4485 15.8364C17.4257 15.8399 17.4026 15.8414 17.3796 15.8407C17.1526 15.8428 16.9628 15.6684 16.9458 15.442C16.9287 15.2157 17.0902 15.0149 17.3149 14.9829C17.5648 14.9451 17.8075 14.8695 18.0348 14.7588C18.2071 14.9896 18.3491 15.2417 18.4572 15.5088Z" fill="#FF5364"/>
<path d="M8.85402 12.4994C8.83226 12.6204 8.82072 12.7429 8.81953 12.8658C8.81866 13.0275 8.84043 13.1886 8.88419 13.3443C8.6134 13.442 8.3307 13.5029 8.04368 13.5253C7.98851 13.3141 7.95955 13.097 7.95747 12.8788C7.19822 12.7959 6.6227 12.1554 6.62127 11.3917C6.61982 11.1516 6.81226 10.9554 7.0523 10.952C7.16608 10.9514 7.27546 10.996 7.35632 11.076C7.43718 11.1561 7.48288 11.265 7.48333 11.3788V11.3917C7.48978 11.7323 7.75941 12.0095 8.09971 12.0253C8.1593 11.8309 8.24178 11.6442 8.3454 11.4693C8.40328 11.3704 8.4986 11.2992 8.60977 11.2716C8.72094 11.244 8.83854 11.2624 8.93591 11.3227C9.13859 11.448 9.20375 11.7125 9.08246 11.9176C8.97301 12.0967 8.8957 12.2937 8.85402 12.4994Z" fill="#FF5364"/>
<path d="M15.2631 15.0214C15.0041 15.1043 14.7367 15.1578 14.4657 15.1809C14.2694 14.9423 14.1519 14.6486 14.1295 14.3404C14.1712 14.3412 14.213 14.3397 14.2545 14.3361C14.5105 14.3198 14.7637 14.2735 15.0088 14.1981C15.1575 14.1472 15.3221 14.1811 15.4385 14.2868C15.5548 14.3924 15.6044 14.5531 15.5679 14.7059C15.5314 14.8588 15.4146 14.9797 15.2631 15.0214Z" fill="#FF5364"/>
<path d="M11.5526 7.32765C11.5526 7.0896 11.3596 6.89662 11.1215 6.89662C10.027 6.89781 9.13997 7.78482 9.13878 8.87937C9.13878 9.11742 9.33176 9.3104 9.56981 9.3104C9.80786 9.3104 10.0008 9.11742 10.0008 8.87937C10.0008 8.58215 10.1189 8.2971 10.3291 8.08693C10.5393 7.87676 10.8243 7.75869 11.1215 7.75869C11.3596 7.75869 11.5526 7.56571 11.5526 7.32765Z" fill="#FF5364"/>
<path d="M5.92636 9.75055C5.84807 9.75064 5.77127 9.72916 5.70438 9.68848C5.34894 9.47401 5.08002 9.14163 4.94447 8.74926C4.87889 8.56272 4.84552 8.36639 4.84576 8.16866C4.84575 7.1918 5.63614 6.3991 6.61299 6.39625C7.17273 6.39411 7.6997 6.65992 8.03066 7.11134C8.12251 7.23499 8.14142 7.39826 8.08026 7.53964C8.0191 7.68102 7.88716 7.77903 7.73414 7.79675C7.58113 7.81447 7.43028 7.74921 7.33842 7.62556C7.16948 7.39504 6.90051 7.25919 6.61472 7.26004C6.20674 7.26233 5.85006 7.53566 5.74174 7.929C5.63343 8.32234 5.79991 8.73973 6.1492 8.95055C6.31529 9.05042 6.3943 9.24885 6.34232 9.43555C6.29035 9.62225 6.12016 9.75131 5.92636 9.75098V9.75055Z" fill="#FF5364"/>
<path d="M15.176 5.65111C14.938 5.65111 14.745 5.45813 14.745 5.22007C14.745 4.71933 14.3391 4.3134 13.8383 4.3134C13.3376 4.3134 12.9317 4.71933 12.9317 5.22007C12.9317 5.45813 12.7387 5.65111 12.5006 5.65111C12.2626 5.65111 12.0696 5.45813 12.0696 5.22007C12.0696 4.24322 12.8615 3.45133 13.8383 3.45133C14.8152 3.45133 15.6071 4.24322 15.6071 5.22007C15.6071 5.33439 15.5617 5.44403 15.4808 5.52486C15.4 5.60569 15.2904 5.65111 15.176 5.65111Z" fill="#FF5364"/>
<path d="M19.2191 10.6205C19.019 10.6186 18.8465 10.4791 18.8028 10.2838C18.759 10.0885 18.8554 9.88879 19.0355 9.80157C19.2073 9.72086 19.3499 9.58896 19.4437 9.42399C19.663 9.05029 19.5867 8.57361 19.2617 8.28702C18.9368 8.00043 18.4543 7.9843 18.1109 8.24856C17.9205 8.39139 17.6503 8.3528 17.5075 8.16235C17.3647 7.97191 17.4033 7.70174 17.5937 7.55891C17.8953 7.33054 18.2628 7.20594 18.6411 7.20374C19.4739 7.19809 20.1982 7.77309 20.3816 8.58542C20.565 9.39775 20.158 10.2282 19.4036 10.5809C19.3459 10.6077 19.2828 10.6213 19.2191 10.6205Z" fill="#FF5364"/>
</g>
<defs>
<clipPath id="clip0_129_4352">
<rect width="24.2489" height="24.2489" fill="white" transform="scale(1.03097)"/>
</clipPath>
</defs>
</svg>
