<svg width="18" height="18" viewBox="0 0 18 18" fill="none" xmlns="http://www.w3.org/2000/svg">
<circle cx="9" cy="9" r="9" fill="white"/>
<path d="M8.99984 9.41634C8.87298 9.41486 8.74872 9.45227 8.64377 9.52355C8.53882 9.59483 8.45823 9.69655 8.41284 9.81501C8.36745 9.93348 8.35945 10.063 8.3899 10.1862C8.42035 10.3093 8.4878 10.4202 8.58317 10.5038V11.083C8.58317 11.1935 8.62707 11.2995 8.70521 11.3776C8.78335 11.4558 8.88933 11.4997 8.99984 11.4997C9.11034 11.4997 9.21632 11.4558 9.29446 11.3776C9.37261 11.2995 9.4165 11.1935 9.4165 11.083V10.5038C9.51187 10.4202 9.57932 10.3093 9.60978 10.1862C9.64023 10.063 9.63222 9.93348 9.58683 9.81501C9.54144 9.69655 9.46085 9.59483 9.3559 9.52355C9.25096 9.45227 9.12669 9.41486 8.99984 9.41634ZM11.0832 7.74967V6.91634C11.0832 6.36381 10.8637 5.8339 10.473 5.4432C10.0823 5.0525 9.55237 4.83301 8.99984 4.83301C8.4473 4.83301 7.9174 5.0525 7.5267 5.4432C7.136 5.8339 6.9165 6.36381 6.9165 6.91634V7.74967C6.58498 7.74967 6.26704 7.88137 6.03262 8.11579C5.7982 8.35021 5.6665 8.66815 5.6665 8.99967V11.9163C5.6665 12.2479 5.7982 12.5658 6.03262 12.8002C6.26704 13.0346 6.58498 13.1663 6.9165 13.1663H11.0832C11.4147 13.1663 11.7326 13.0346 11.9671 12.8002C12.2015 12.5658 12.3332 12.2479 12.3332 11.9163V8.99967C12.3332 8.66815 12.2015 8.35021 11.9671 8.11579C11.7326 7.88137 11.4147 7.74967 11.0832 7.74967ZM7.74984 6.91634C7.74984 6.58482 7.88153 6.26688 8.11595 6.03246C8.35037 5.79804 8.66832 5.66634 8.99984 5.66634C9.33136 5.66634 9.6493 5.79804 9.88372 6.03246C10.1181 6.26688 10.2498 6.58482 10.2498 6.91634V7.74967H7.74984V6.91634ZM11.4998 11.9163C11.4998 12.0268 11.4559 12.1328 11.3778 12.211C11.2997 12.2891 11.1937 12.333 11.0832 12.333H6.9165C6.806 12.333 6.70002 12.2891 6.62188 12.211C6.54374 12.1328 6.49984 12.0268 6.49984 11.9163V8.99967C6.49984 8.88917 6.54374 8.78319 6.62188 8.70505C6.70002 8.62691 6.806 8.58301 6.9165 8.58301H11.0832C11.1937 8.58301 11.2997 8.62691 11.3778 8.70505C11.4559 8.78319 11.4998 8.88917 11.4998 8.99967V11.9163Z" fill="#D97356"/>
</svg>
