<svg width="40" height="40" viewBox="0 0 40 40" fill="none" xmlns="http://www.w3.org/2000/svg">
<rect width="40" height="40" rx="5" fill="#D97356"/>
<path d="M28.878 27.6432L25.6519 24.4432C26.9042 22.8818 27.5106 20.9 27.3465 18.9052C27.1825 16.9104 26.2603 15.0543 24.7698 13.7186C23.2792 12.3828 21.3335 11.6689 19.3327 11.7236C17.332 11.7784 15.4282 12.5976 14.0129 14.0129C12.5976 15.4282 11.7784 17.332 11.7236 19.3327C11.6689 21.3335 12.3828 23.2792 13.7186 24.7698C15.0543 26.2603 16.9104 27.1825 18.9052 27.3465C20.9 27.5106 22.8818 26.9042 24.4432 25.6519L27.6432 28.8519C27.7241 28.9334 27.8202 28.9981 27.9262 29.0423C28.0322 29.0864 28.1458 29.1091 28.2606 29.1091C28.3754 29.1091 28.4891 29.0864 28.595 29.0423C28.701 28.9981 28.7972 28.9334 28.878 28.8519C29.0347 28.6898 29.1223 28.4731 29.1223 28.2476C29.1223 28.0221 29.0347 27.8054 28.878 27.6432ZM19.565 25.6519C18.3611 25.6519 17.1842 25.2949 16.1832 24.6261C15.1822 23.9572 14.4021 23.0066 13.9413 21.8943C13.4806 20.7821 13.3601 19.5582 13.595 18.3775C13.8298 17.1967 14.4096 16.1121 15.2608 15.2608C16.1121 14.4096 17.1967 13.8298 18.3775 13.595C19.5582 13.3601 20.7821 13.4806 21.8943 13.9413C23.0066 14.4021 23.9572 15.1822 24.6261 16.1832C25.2949 17.1842 25.6519 18.3611 25.6519 19.565C25.6519 21.1793 25.0106 22.7276 23.8691 23.8691C22.7276 25.0106 21.1793 25.6519 19.565 25.6519Z" fill="white"/>
</svg>
