<svg width="24" height="24" viewBox="0 0 24 24" fill="none" xmlns="http://www.w3.org/2000/svg">
<rect width="24" height="24" rx="4" fill="#E6FFF3"/>
<g clip-path="url(#clip0_129_4269)">
<path d="M11.9998 6.85742C9.15947 6.85742 6.85693 9.15995 6.85693 12.0003C6.85693 14.8406 9.15947 17.1431 11.9998 17.1431C14.8401 17.1431 17.1426 14.8406 17.1426 12.0003C17.1396 9.16122 14.8388 6.86046 11.9998 6.85742ZM14.1656 12.1641C14.13 12.2355 14.0722 12.2934 14.0007 12.3291V12.3309L11.0619 13.8003C10.8805 13.891 10.6598 13.8174 10.5691 13.6359C10.5433 13.5843 10.5301 13.5273 10.5304 13.4697V10.5309C10.5303 10.328 10.6947 10.1635 10.8976 10.1634C10.9546 10.1633 11.0109 10.1766 11.0619 10.2021L14.0007 11.6715C14.1823 11.762 14.2561 11.9826 14.1656 12.1641Z" fill="#00C968"/>
</g>
<defs>
<clipPath id="clip0_129_4269">
<rect x="6.85693" y="6.85742" width="10.2857" height="10.2857" rx="4" fill="white"/>
</clipPath>
</defs>
</svg>
