<svg width="24" height="24" viewBox="0 0 24 24" fill="none" xmlns="http://www.w3.org/2000/svg">
<rect width="24" height="24" rx="4" fill="#F8F2FF"/>
<g clip-path="url(#clip0_129_4256)">
<path d="M12.4583 9.6812C12.2031 9.93577 11.7897 9.93577 11.5345 9.6812C11.2795 9.42663 11.2795 9.01386 11.5345 8.75929C11.7897 8.50472 12.2031 8.50472 12.4583 8.75929C12.7133 9.01386 12.7133 9.42663 12.4583 9.6812Z" fill="#D97356"/>
<path d="M13.351 10.6689C13.2714 10.6689 13.1918 10.6385 13.1313 10.5777C13.0101 10.4564 13.0103 10.2598 13.1317 10.1387C13.3775 9.89336 13.5129 9.56714 13.5129 9.22021C13.5129 8.87328 13.3775 8.54706 13.1317 8.30167C13.0103 8.18051 13.0101 7.98401 13.1313 7.86261C13.2523 7.74129 13.4489 7.74106 13.5702 7.86222C13.9337 8.22493 14.1338 8.70715 14.1338 9.22021C14.1338 9.73319 13.9337 10.2155 13.5702 10.5782C13.5097 10.6387 13.4303 10.6689 13.351 10.6689Z" fill="#D97356"/>
<path d="M14.0531 11.5828C13.9736 11.5828 13.894 11.5524 13.8334 11.4917C13.7122 11.3703 13.7125 11.1738 13.8338 11.0526C14.3243 10.5631 14.5945 9.91235 14.5945 9.22013C14.5945 8.52791 14.3243 7.87713 13.8338 7.38761C13.7125 7.26645 13.7122 7.06995 13.8334 6.94855C13.9546 6.82723 14.1511 6.82699 14.2724 6.94816C14.8804 7.555 15.2153 8.36186 15.2153 9.22013C15.2153 10.0784 14.8804 10.8853 14.2724 11.4922C14.2118 11.5526 14.1325 11.5828 14.0531 11.5828Z" fill="#D97356"/>
<path d="M10.6413 10.6689C10.5619 10.6689 10.4826 10.6387 10.4219 10.5782C10.0585 10.2155 9.8584 9.73322 9.8584 9.22024C9.8584 8.70718 10.0585 8.22495 10.4219 7.86225C10.5432 7.74109 10.7398 7.74124 10.8609 7.86264C10.9821 7.98396 10.9818 8.18054 10.8605 8.3017C10.6147 8.54709 10.4793 8.87331 10.4793 9.22024C10.4793 9.56717 10.6147 9.89339 10.8605 10.1388C10.9818 10.2599 10.9821 10.4564 10.8609 10.5778C10.8003 10.6385 10.7207 10.6689 10.6413 10.6689Z" fill="#D97356"/>
<path d="M9.93905 11.5829C9.85964 11.5829 9.7803 11.5526 9.71972 11.4921C9.1117 10.8853 8.77686 10.0784 8.77686 9.22017C8.77686 8.36182 9.1117 7.55496 9.71972 6.94812C9.84104 6.82703 10.0376 6.82719 10.1587 6.94859C10.2799 7.06991 10.2796 7.26641 10.1583 7.38757C9.66785 7.87709 9.39766 8.52787 9.39766 9.22009C9.39766 9.91231 9.66785 10.5632 10.1583 11.0527C10.2796 11.1739 10.2799 11.3704 10.1587 11.4917C10.0981 11.5525 10.0185 11.5829 9.93905 11.5829Z" fill="#D97356"/>
<path d="M16.0874 12.1191H7.90442C7.50334 12.1191 7.17822 12.4443 7.17822 12.8453V16.4165C7.17822 16.8176 7.50334 17.1427 7.90442 17.1427H16.0873C16.4884 17.1427 16.8135 16.8176 16.8135 16.4165V12.8453C16.8135 12.4443 16.4884 12.1191 16.0874 12.1191ZM9.56625 16.211H8.4225C8.25111 16.211 8.11214 16.072 8.11214 15.9005V13.3613C8.11214 13.1899 8.25111 13.0509 8.4225 13.0509C8.59396 13.0509 8.73294 13.1898 8.73294 13.3613V15.5901H9.56625C9.73772 15.5901 9.87669 15.7291 9.87669 15.9005C9.87669 16.072 9.73772 16.211 9.56625 16.211ZM10.8385 15.9005C10.8385 16.072 10.6995 16.211 10.528 16.211C10.3566 16.211 10.2176 16.072 10.2176 15.9005V13.3613C10.2176 13.1899 10.3566 13.0509 10.528 13.0509C10.6995 13.0509 10.8385 13.1898 10.8385 13.3613V15.9005ZM13.4504 13.4511L12.6838 15.9902C12.6837 15.9905 12.6836 15.9907 12.6835 15.9909C12.6003 16.2751 12.1758 16.2681 12.0897 15.9909C12.0896 15.9907 12.0895 15.9905 12.0894 15.9902L11.3228 13.4511C11.2733 13.2869 11.3661 13.1137 11.5303 13.0641C11.6943 13.0146 11.8676 13.1074 11.9172 13.2716L12.3866 14.8264L12.856 13.2716C12.9056 13.1074 13.0788 13.0145 13.243 13.0641C13.4071 13.1137 13.5 13.2869 13.4504 13.4511ZM15.3602 14.1606C15.5317 14.1606 15.6706 14.2996 15.6706 14.4711C15.6706 14.6425 15.5317 14.7815 15.3602 14.7815H14.4792V15.5901H15.5274C15.6989 15.5901 15.8379 15.7291 15.8379 15.9005C15.8379 16.072 15.6989 16.211 15.5274 16.211H14.1688C13.9973 16.211 13.8584 16.072 13.8584 15.9005V13.3613C13.8584 13.1899 13.9973 13.0509 14.1688 13.0509H15.5692C15.7406 13.0509 15.8797 13.1898 15.8797 13.3613C15.8797 13.5328 15.7406 13.6717 15.5692 13.6717H14.4792V14.1606H15.3602Z" fill="#D97356"/>
</g>
<defs>
<clipPath id="clip0_129_4256">
<rect width="10.2857" height="10.2857" fill="white" transform="translate(6.85693 6.85742)"/>
</clipPath>
</defs>
</svg>
