<svg width="28" height="28" viewBox="0 0 28 28" fill="none" xmlns="http://www.w3.org/2000/svg">
<circle cx="14" cy="14" r="14" fill="#D97356"/>
<path d="M14.0001 8.90858C12.6176 8.90858 12.4441 8.91463 11.901 8.93934C11.3591 8.96416 10.9892 9.04996 10.6655 9.17585C10.3307 9.30588 10.0466 9.47982 9.76367 9.7629C9.48049 10.0459 9.30656 10.3299 9.17611 10.6646C9.0499 10.9884 8.96399 11.3585 8.9396 11.9002C8.91531 12.4433 8.90895 12.6169 8.90895 13.9995C8.90895 15.3821 8.9151 15.5551 8.93971 16.0981C8.96463 16.6401 9.05043 17.01 9.17622 17.3337C9.30635 17.6685 9.48028 17.9526 9.76335 18.2355C10.0462 18.5187 10.3302 18.6931 10.6648 18.8231C10.9887 18.949 11.3588 19.0348 11.9006 19.0596C12.4436 19.0844 12.617 19.0904 13.9995 19.0904C15.3822 19.0904 15.5551 19.0844 16.0982 19.0596C16.6401 19.0348 17.0105 18.949 17.3344 18.8231C17.6691 18.6931 17.9527 18.5187 18.2355 18.2355C18.5187 17.9526 18.6926 17.6685 18.8231 17.3338C18.9482 17.01 19.0341 16.64 19.0596 16.0982C19.084 15.5552 19.0904 15.3821 19.0904 13.9995C19.0904 12.6169 19.084 12.4434 19.0596 11.9003C19.0341 11.3584 18.9482 10.9884 18.8231 10.6647C18.6926 10.3299 18.5187 10.0459 18.2355 9.7629C17.9524 9.47972 17.6692 9.30578 17.334 9.17585C17.0095 9.04996 16.6394 8.96416 16.0974 8.93934C15.5544 8.91463 15.3815 8.90858 13.9985 8.90858H14.0001ZM13.5434 9.826C13.679 9.82579 13.8302 9.826 14.0001 9.826C15.3594 9.826 15.5205 9.83088 16.0572 9.85528C16.5536 9.87797 16.823 9.96091 17.0024 10.0306C17.24 10.1229 17.4093 10.2332 17.5874 10.4114C17.7656 10.5895 17.8759 10.7592 17.9684 10.9968C18.0381 11.176 18.1211 11.4454 18.1437 11.9418C18.1681 12.4785 18.1734 12.6397 18.1734 13.9983C18.1734 15.357 18.1681 15.5182 18.1437 16.0548C18.121 16.5512 18.0381 16.8206 17.9684 16.9998C17.8761 17.2374 17.7656 17.4066 17.5874 17.5847C17.4092 17.7628 17.2401 17.8731 17.0024 17.9654C16.8232 18.0354 16.5536 18.1181 16.0572 18.1408C15.5206 18.1652 15.3594 18.1705 14.0001 18.1705C12.6408 18.1705 12.4797 18.1652 11.943 18.1408C11.4467 18.1179 11.1773 18.035 10.9978 17.9653C10.7602 17.873 10.5905 17.7627 10.4123 17.5845C10.2341 17.4064 10.1238 17.2371 10.0314 16.9994C9.96168 16.8202 9.87863 16.5508 9.85604 16.0544C9.83165 15.5177 9.82677 15.3565 9.82677 13.997C9.82677 12.6376 9.83165 12.4772 9.85604 11.9405C9.87874 11.4442 9.96168 11.1748 10.0314 10.9953C10.1236 10.7577 10.2341 10.588 10.4123 10.4099C10.5905 10.2317 10.7602 10.1214 10.9978 10.0289C11.1772 9.9589 11.4467 9.87617 11.943 9.85337C12.4127 9.83216 12.5947 9.82579 13.5434 9.82473V9.826ZM16.7175 10.6713C16.3803 10.6713 16.1066 10.9446 16.1066 11.282C16.1066 11.6193 16.3803 11.8929 16.7175 11.8929C17.0548 11.8929 17.3284 11.6193 17.3284 11.282C17.3284 10.9447 17.0548 10.6711 16.7175 10.6711V10.6713ZM14.0001 11.3851C12.5564 11.3851 11.3858 12.5557 11.3858 13.9995C11.3858 15.4433 12.5564 16.6134 14.0001 16.6134C15.4439 16.6134 16.614 15.4433 16.614 13.9995C16.614 12.5557 15.4438 11.3851 14 11.3851H14.0001ZM14.0001 12.3025C14.9373 12.3025 15.697 13.0622 15.697 13.9995C15.697 14.9366 14.9373 15.6965 14.0001 15.6965C13.0629 15.6965 12.3032 14.9366 12.3032 13.9995C12.3032 13.0622 13.0629 12.3025 14.0001 12.3025Z" fill="white"/>
</svg>
