<svg width="22" height="19" viewBox="0 0 22 19" fill="none" xmlns="http://www.w3.org/2000/svg">
<g clip-path="url(#clip0_130_9578)">
<path d="M20.9205 17.3717C20.9677 17.3722 21.0145 17.363 21.058 17.3448C21.1015 17.3266 21.1408 17.2998 21.1733 17.266C21.2059 17.2321 21.2311 17.192 21.2474 17.1482C21.2637 17.1043 21.2706 17.0576 21.2679 17.0109C21.2679 16.7551 21.112 16.6328 20.7922 16.6328H20.2754V17.9724H20.4698V17.3885H20.7086L20.7141 17.3956L21.0848 17.9724H21.2926L20.8938 17.3754L20.9205 17.3717ZM20.6957 17.2375H20.4703V16.7846H20.756C20.9036 16.7846 21.0718 16.8085 21.0718 16.9998C21.0718 17.2199 20.9016 17.2375 20.6946 17.2375" fill="black"/>
<path d="M15.8502 15.6939H13.0939V11.4199C13.0939 10.4008 13.0756 9.08876 11.6604 9.08876C10.2248 9.08876 10.0051 10.1992 10.0051 11.3457V15.6936H7.24881V6.90457H9.89488V8.10569H9.93192C10.1967 7.65738 10.5794 7.28858 11.0391 7.03856C11.4989 6.78855 12.0185 6.66669 12.5427 6.68595C15.3363 6.68595 15.8514 8.5054 15.8514 10.8724L15.8502 15.6939ZM4.13878 5.70317C3.82242 5.70322 3.51314 5.61039 3.25007 5.43641C2.987 5.26243 2.78195 5.01512 2.66084 4.72574C2.53972 4.43637 2.50798 4.11793 2.56964 3.8107C2.6313 3.50346 2.7836 3.22124 3.00726 2.9997C3.23091 2.77817 3.5159 2.62728 3.82616 2.56611C4.13643 2.50495 4.45804 2.53625 4.75033 2.65607C5.04263 2.77589 5.29248 2.97885 5.46828 3.23926C5.64409 3.49968 5.73796 3.80587 5.73802 4.11911C5.73805 4.3271 5.69671 4.53305 5.61636 4.72522C5.53601 4.91738 5.41824 5.092 5.26973 5.23909C5.12123 5.38618 4.94491 5.50287 4.75086 5.5825C4.55681 5.66213 4.34883 5.70313 4.13878 5.70317ZM5.51693 15.6939H2.75775V6.90457H5.51693V15.6939ZM17.2244 0.00119386H1.3727C1.01292 -0.00282636 0.666217 0.134751 0.408822 0.383695C0.151426 0.632638 0.00439102 0.97258 0 1.32882V17.0895C0.00424073 17.4459 0.15119 17.7861 0.408576 18.0353C0.665963 18.2845 1.01274 18.4223 1.3727 18.4185H17.2244C17.5851 18.423 17.9328 18.2856 18.1912 18.0364C18.4496 17.7872 18.5975 17.4466 18.6025 17.0895V1.32768C18.5974 0.970736 18.4494 0.630408 18.191 0.38147C17.9325 0.132533 17.5849 -0.00465146 17.2244 5.62473e-05" fill="black"/>
<path d="M20.7197 16.0373C20.3843 16.0405 20.0639 16.175 19.8285 16.4115C19.593 16.648 19.4618 16.9672 19.4634 17.2992C19.465 17.6313 19.5994 17.9492 19.8371 18.1834C20.0748 18.4177 20.3965 18.5492 20.7319 18.5492C21.0672 18.5492 21.3889 18.4177 21.6267 18.1834C21.8644 17.9492 21.9987 17.6313 22.0003 17.2992C22.0019 16.9672 21.8707 16.648 21.6353 16.4115C21.3999 16.175 21.0794 16.0405 20.7441 16.0373H20.7197ZM20.7197 18.4054C20.4997 18.409 20.2836 18.348 20.0987 18.23C19.9138 18.112 19.7683 17.9424 19.6808 17.7425C19.5932 17.5427 19.5675 17.3217 19.6068 17.1073C19.6461 16.893 19.7487 16.6951 19.9017 16.5385C20.0546 16.3819 20.251 16.2738 20.466 16.2278C20.681 16.1817 20.905 16.1998 21.1097 16.2798C21.3143 16.3598 21.4903 16.4981 21.6156 16.6772C21.7408 16.8562 21.8096 17.0681 21.8133 17.2859C21.8133 17.2921 21.8133 17.2981 21.8133 17.3043C21.8194 17.59 21.7107 17.8665 21.5111 18.0728C21.3114 18.2792 21.0372 18.3986 20.7487 18.4048H20.7199" fill="black"/>
</g>
<defs>
<clipPath id="clip0_130_9578">
<rect width="22" height="18.5714" fill="white"/>
</clipPath>
</defs>
</svg>
