<svg width="25" height="25" viewBox="0 0 25 25" fill="none" xmlns="http://www.w3.org/2000/svg">
<g clip-path="url(#clip0_129_4379)">
<path d="M22.7317 24.9993H15.3239C14.2092 24.9993 13.3054 24.0956 13.3054 22.9809V15.5731C13.3054 14.4583 14.2092 13.5546 15.3239 13.5546H22.7317C23.8464 13.5546 24.7501 14.4583 24.7501 15.5731V22.9809C24.7502 24.0956 23.8465 24.9993 22.7317 24.9993Z" fill="#BDF4E3"/>
<path d="M22.0746 23.2163H15.98C15.4877 23.2163 15.0885 22.8171 15.0885 22.3247V16.2302C15.0885 15.7379 15.4877 15.3387 15.98 15.3387H22.0746C22.567 15.3387 22.9662 15.7379 22.9662 16.2302V22.3248C22.9662 22.8171 22.567 23.2163 22.0746 23.2163Z" fill="#FFDCB6"/>
<path d="M22.7317 13.5546H20.5477C21.4041 13.5546 22.0984 14.249 22.0984 15.1054V20.7969C22.0984 21.6534 21.4041 22.3477 20.5477 22.3477H14.8562C13.9997 22.3477 13.3054 21.6533 13.3054 20.7969V22.9809C13.3054 24.0956 14.2092 24.9993 15.3239 24.9993H22.7317C23.8464 24.9993 24.7501 24.0956 24.7501 22.9809V15.5731C24.7501 14.4583 23.8464 13.5546 22.7317 13.5546Z" fill="#B1B7E3"/>
<path d="M22.0988 15.3397V20.7972C22.0988 21.6537 21.4045 22.348 20.548 22.348H15.0905C15.1031 22.8295 15.4964 23.2161 15.9809 23.2161H22.0754C22.5678 23.2161 22.967 22.817 22.967 22.3246V16.2301C22.9669 15.7456 22.5803 15.3522 22.0988 15.3397Z" fill="#EFA5B6"/>
<path d="M21.2632 13.5439H13.8555C12.7407 13.5439 11.837 12.6402 11.837 11.5254V4.11764C11.837 3.0029 12.7407 2.09919 13.8555 2.09919H21.2633C22.378 2.09919 23.2817 3.0029 23.2817 4.11764V11.5255C23.2817 12.6402 22.378 13.5439 21.2632 13.5439Z" fill="#EF8BBD"/>
<path d="M20.6066 11.7599H14.5121C14.0197 11.7599 13.6206 11.3607 13.6206 10.8683V4.77379C13.6206 4.28141 14.0197 3.88224 14.5121 3.88224H20.6066C21.099 3.88224 21.4982 4.28141 21.4982 4.77379V10.8683C21.4982 11.3607 21.099 11.7599 20.6066 11.7599Z" fill="#FFDCB6"/>
<path d="M21.2633 2.09919H19.0793C19.9358 2.09919 20.63 2.79352 20.63 3.64997V9.34145C20.63 10.1979 19.9357 10.8922 19.0793 10.8922H13.3878C12.5314 10.8922 11.837 10.1979 11.837 9.34145V11.5254C11.837 12.6402 12.7407 13.5439 13.8555 13.5439H21.2633C22.378 13.5439 23.2817 12.6402 23.2817 11.5254V4.11764C23.2817 3.0029 22.378 2.09919 21.2633 2.09919Z" fill="#E068BD"/>
<path d="M20.6303 3.88426V9.3418C20.6303 10.1982 19.936 10.8926 19.0795 10.8926H13.6211C13.6336 11.374 14.0279 11.7607 14.5123 11.7607H20.6068C21.0992 11.7607 21.4984 11.3615 21.4984 10.8691V4.77463C21.4984 4.29016 21.1117 3.89681 20.6303 3.88426Z" fill="#EFA5B6"/>
<path d="M9.67647 24.9993H2.26864C1.1539 24.9993 0.250191 24.0956 0.250191 22.9809V15.5731C0.250191 14.4583 1.1539 13.5546 2.26864 13.5546H9.67647C10.7912 13.5546 11.6949 14.4583 11.6949 15.5731V22.9809C11.6949 24.0956 10.7912 24.9993 9.67647 24.9993Z" fill="#CAB4EF"/>
<path d="M9.01985 23.2153H2.9253C2.43292 23.2153 2.03375 22.8161 2.03375 22.3237V16.2292C2.03375 15.7369 2.43292 15.3377 2.9253 15.3377H9.01985C9.51223 15.3377 9.9114 15.7369 9.9114 16.2292V22.3238C9.9114 22.8161 9.51223 23.2153 9.01985 23.2153Z" fill="#FFDCB6"/>
<path d="M9.67743 13.5546H7.4934C8.3499 13.5546 9.04418 14.249 9.04418 15.1054V20.7969C9.04418 21.6534 8.3499 22.3477 7.4934 22.3477H1.80197C0.945482 22.3477 0.251198 21.6534 0.251198 20.7969V22.9809C0.251149 24.0956 1.15486 24.9993 2.2696 24.9993H9.67743C10.7922 24.9993 11.6959 24.0957 11.6959 22.9809V15.5731C11.6958 14.4583 10.7922 13.5546 9.67743 13.5546Z" fill="#BE87EF"/>
<path d="M9.04353 15.3397V20.7972C9.04353 21.6537 8.34925 22.348 7.49276 22.348H2.03526C2.04781 22.8294 2.44112 23.2161 2.92564 23.2161H9.02019C9.51257 23.2161 9.91174 22.8169 9.91174 22.3245V16.2301C9.91169 15.7456 9.52502 15.3522 9.04353 15.3397Z" fill="#EFA5B6"/>
<path d="M3.37177 19.4388C3.1021 19.4388 2.88349 19.2201 2.88349 18.9505V18.347C2.88349 18.0774 3.1021 17.8587 3.37177 17.8587C3.64145 17.8587 3.86005 18.0774 3.86005 18.347V18.9505C3.86005 19.2202 3.64145 19.4388 3.37177 19.4388Z" fill="white"/>
<path d="M3.37177 17.4076C3.1021 17.4076 2.88349 17.1889 2.88349 16.9193V16.6979C2.88349 16.4282 3.1021 16.2096 3.37177 16.2096C3.64145 16.2096 3.86005 16.4282 3.86005 16.6979V16.9193C3.86005 17.189 3.64145 17.4076 3.37177 17.4076Z" fill="white"/>
<path d="M19.5417 22.3198C19.2822 22.303 19.0859 22.0759 19.0859 21.8159V17.2103H18.4986C18.2386 17.2103 18.0115 17.0141 17.9947 16.7546C17.9762 16.4702 18.2015 16.2337 18.4819 16.2337H19.6195C19.8642 16.2337 20.0626 16.4321 20.0626 16.6768V21.8326C20.0625 22.113 19.8261 22.3383 19.5417 22.3198Z" fill="#D58A9C"/>
<path d="M17.3222 10.9162C16.3422 10.9162 16.2703 10.8921 16.2044 10.8702C16.0417 10.816 15.9201 10.693 15.8708 10.5328C15.7858 10.2564 15.905 10.1004 16.2235 9.68326C16.4834 9.34293 16.9673 8.70949 17.778 7.55109C18.0191 7.20661 18.1746 6.89812 18.2404 6.63357L18.2578 6.49646C18.2433 6.0573 17.8816 5.70447 17.4389 5.70447C17.0482 5.70447 16.71 5.98211 16.6349 6.36453C16.5829 6.62917 16.3261 6.80154 16.0617 6.74958C15.7971 6.69763 15.6247 6.44099 15.6767 6.17639C15.8415 5.33714 16.5827 4.72796 17.4389 4.72796C18.4292 4.72796 19.2349 5.53362 19.2349 6.52395V6.555L19.2026 6.80793L19.197 6.83196C19.1062 7.2237 18.898 7.65407 18.5781 8.1111C17.9712 8.97824 17.5443 9.55617 17.2561 9.93854C17.7384 9.93678 18.3681 9.93419 18.9571 9.92682C18.9592 9.92677 18.9613 9.92677 18.9634 9.92677C19.2302 9.92677 19.4482 10.1414 19.4515 10.4089C19.4549 10.6785 19.239 10.8999 18.9694 10.9033C18.2407 10.9124 17.7102 10.9162 17.3222 10.9162Z" fill="#D58A9C"/>
<path d="M5.9729 19.7652C5.70323 19.7652 5.48462 19.5466 5.48462 19.2769C5.48462 19.0073 5.70323 18.7887 5.9729 18.7887C6.42476 18.7887 6.79233 18.4211 6.79233 17.9692C6.79233 17.5174 6.42476 17.1498 5.9729 17.1498C5.58213 17.1498 5.244 17.4275 5.1689 17.8099C5.11695 18.0745 4.86051 18.2472 4.59566 18.195C4.33107 18.143 4.15865 17.8864 4.21066 17.6218C4.37545 16.7825 5.11661 16.1733 5.9729 16.1733C6.96323 16.1733 7.76889 16.979 7.76889 17.9693C7.76894 18.9595 6.96323 19.7652 5.9729 19.7652Z" fill="#D58A9C"/>
<path d="M5.97268 22.3809C5.08166 22.3809 4.31697 21.7162 4.19402 20.8348C4.18255 20.7527 4.17673 20.6686 4.17673 20.5849C4.17673 20.3153 4.39534 20.0966 4.66501 20.0966C4.93469 20.0966 5.15329 20.3153 5.15329 20.5849C5.15329 20.6235 5.15598 20.6621 5.1612 20.6997C5.21726 21.1015 5.56614 21.4044 5.97273 21.4044C6.42458 21.4044 6.79216 21.0368 6.79216 20.585C6.79216 20.1331 6.42458 19.7656 5.97273 19.7656C5.70305 19.7656 5.48445 19.5469 5.48445 19.2773C5.48445 19.0077 5.70305 18.789 5.97273 18.789C6.96306 18.789 7.76872 19.5947 7.76872 20.585C7.76872 21.5752 6.96301 22.3809 5.97268 22.3809Z" fill="#D58A9C"/>
<path d="M8.61856 0.126599L9.04361 1.32171C9.06182 1.37288 9.09786 1.41341 9.14332 1.43392L10.2051 1.91233C10.3551 1.97991 10.3551 2.21892 10.2051 2.2865L9.14332 2.76492C9.09786 2.78538 9.06182 2.82595 9.04361 2.87712L8.61856 4.07229C8.5585 4.24113 8.34615 4.24113 8.28609 4.07229L7.86105 2.87712C7.84283 2.82595 7.8068 2.78543 7.76134 2.76492L6.69953 2.2865C6.54953 2.21892 6.54953 1.97991 6.69953 1.91233L7.76134 1.43392C7.8068 1.41341 7.84283 1.37288 7.86105 1.32171L8.28614 0.126599C8.3462 -0.0421995 8.55855 -0.0421995 8.61856 0.126599Z" fill="#F7C4DB"/>
<path d="M3.28835 10.5104C3.48466 10.0368 3.25985 9.49376 2.78622 9.29743C2.31259 9.10111 1.76949 9.3259 1.57318 9.7995C1.37687 10.2731 1.60169 10.8162 2.07532 11.0125C2.54895 11.2088 3.09204 10.984 3.28835 10.5104Z" fill="#EF8BBD"/>
<path d="M4.40581 3.9453C4.44054 3.73107 4.29502 3.52924 4.08078 3.49451C3.86655 3.45978 3.66473 3.6053 3.63 3.81954C3.59527 4.03377 3.74079 4.2356 3.95502 4.27032C4.16925 4.30505 4.37108 4.15954 4.40581 3.9453Z" fill="#EF8BBD"/>
<path d="M6.09596 7.40636L6.41124 8.29288C6.42472 8.33082 6.45148 8.3609 6.48517 8.37609L7.27281 8.73097C7.38409 8.78111 7.38409 8.95841 7.27281 9.00855L6.48517 9.36344C6.45143 9.37862 6.42472 9.4087 6.41124 9.44664L6.09596 10.3332C6.05143 10.4584 5.89391 10.4584 5.84933 10.3332L5.53405 9.44664C5.52057 9.4087 5.49382 9.37862 5.46012 9.36344L4.67248 9.00855C4.5612 8.95841 4.5612 8.78111 4.67248 8.73097L5.46012 8.37609C5.49386 8.3609 5.52057 8.33082 5.53405 8.29288L5.84933 7.40636C5.89386 7.28112 6.05138 7.28112 6.09596 7.40636Z" fill="#F7C4DB"/>
</g>
<defs>
<clipPath id="clip0_129_4379">
<rect width="24.2489" height="24.2489" fill="white" transform="scale(1.03097)"/>
</clipPath>
</defs>
</svg>
