<svg width="25" height="25" viewBox="0 0 25 25" fill="none" xmlns="http://www.w3.org/2000/svg">
<g clip-path="url(#clip0_129_4329)">
<path d="M13.4484 4.37338C13.2517 4.37375 13.0797 4.2409 13.0303 4.0505C12.981 3.86009 13.0668 3.66042 13.2389 3.56519C16.5337 1.73761 20.5587 0.375547 21.9721 2.03933C22.1268 2.22073 22.1052 2.49322 21.9238 2.64795C21.7424 2.80269 21.4699 2.78107 21.3152 2.59968C20.5893 1.74666 17.7259 2.06347 13.657 4.32122C13.5929 4.3558 13.5212 4.37373 13.4484 4.37338Z" fill="#E57E25"/>
<path d="M3.12498 15.8492C2.94824 15.8493 2.78934 15.7415 2.72412 15.5772C2.13404 14.0923 3.47067 11.538 6.30169 8.74319C6.47356 8.59371 6.73207 8.60376 6.89182 8.76613C7.05156 8.9285 7.0574 9.18714 6.90514 9.35655C4.06507 12.1626 3.16119 14.3427 3.52498 15.2587C3.57783 15.3914 3.56151 15.5416 3.48141 15.6599C3.4013 15.7782 3.26782 15.849 3.12498 15.8492Z" fill="#E57E25"/>
<path d="M11.6635 4.43659C11.5898 4.43661 11.5174 4.41776 11.4531 4.38185C7.26435 2.03358 4.51824 1.78143 3.73764 2.53875C3.56719 2.70539 3.29393 2.7023 3.12729 2.53186C2.96066 2.36141 2.96375 2.08815 3.13419 1.92151C4.66651 0.43014 8.65141 1.82582 11.8708 3.62927C12.0423 3.72505 12.1273 3.92464 12.0776 4.11465C12.0279 4.30466 11.856 4.43704 11.6596 4.43659H11.6635Z" fill="#E57E25"/>
<path d="M21.8917 15.8056C21.7514 15.8056 21.6199 15.7373 21.5392 15.6226C21.4585 15.5078 21.4387 15.361 21.4861 15.2289C21.8926 14.0983 20.5616 11.7932 18.0948 9.35611C17.93 9.18808 17.9305 8.91895 18.0958 8.75149C18.2611 8.58402 18.5302 8.58013 18.7004 8.74275C21.4887 11.4975 22.8331 14.0311 22.2969 15.5203C22.2355 15.6913 22.0734 15.8054 21.8917 15.8056Z" fill="#E57E25"/>
<path d="M9.05166 21.5509H7.75857C7.52051 21.5509 7.32753 21.3579 7.32753 21.1199C7.32753 20.8818 7.52051 20.6889 7.75857 20.6889H9.05166C9.28972 20.6889 9.4827 20.8818 9.4827 21.1199C9.4827 21.3579 9.28972 21.5509 9.05166 21.5509Z" fill="#7F8284"/>
<path d="M17.2415 21.5509H15.9484C15.7104 21.5509 15.5174 21.3579 15.5174 21.1199C15.5174 20.8818 15.7104 20.6889 15.9484 20.6889H17.2415C17.4796 20.6889 17.6726 20.8818 17.6726 21.1199C17.6726 21.3579 17.4796 21.5509 17.2415 21.5509Z" fill="#7F8284"/>
<path d="M20.2241 10.2327C20.0534 12.0003 19.2785 13.6551 18.0301 14.918C16.718 16.2173 15.9701 17.981 15.9483 19.8275H9.05173C9.0487 18.9139 8.8595 18.0104 8.4957 17.1723C8.13099 16.3329 7.6136 15.5686 6.96984 14.918C4.98422 12.9037 4.25374 9.96761 5.06402 7.2577C5.8743 4.54779 8.09663 2.49457 10.8621 1.90085C11.0612 1.86022 11.2049 1.68599 11.2069 1.48275V1.2931C11.2069 0.57894 11.7858 0 12.5 0C13.2142 0 13.7931 0.57894 13.7931 1.2931V1.48275C13.7951 1.68599 13.9388 1.86022 14.1379 1.90085C17.987 2.73131 20.6036 6.31339 20.2241 10.2327Z" fill="#F0C419"/>
<path d="M18.8456 10.2327C18.7289 11.9401 18.1008 13.5727 17.0431 14.918C15.9315 16.3126 15.3282 18.0442 15.3327 19.8275H9.66722C9.66635 18.923 9.51186 18.0251 9.21032 17.1723C8.92308 16.3554 8.49925 15.5931 7.95688 14.918C6.89912 13.5727 6.27098 11.9401 6.1543 10.2327C5.84266 6.18532 8.08791 2.69826 11.1543 1.90085C11.3313 1.84018 11.4468 1.66966 11.4375 1.48275V1.2931C11.3792 0.644287 11.8522 0.0686999 12.5 0C12.7947 0.00659117 13.0706 0.145996 13.2508 0.379309C13.4564 0.639143 13.5665 0.961773 13.5625 1.2931V1.48275C13.5531 1.66966 13.6686 1.84018 13.8456 1.90085C16.912 2.69826 19.1573 6.18532 18.8456 10.2327Z" fill="#F3D55B"/>
<path d="M15.9482 19.827V22.4132C15.9468 22.8887 15.5617 23.2739 15.0861 23.2753H9.91375C9.43824 23.2739 9.05311 22.8887 9.05169 22.4132V19.827H15.9482Z" fill="#95A5A5"/>
<path d="M14.6553 23.4909C14.6553 24.3228 13.6898 24.9995 12.5001 24.9995C11.3104 24.9995 10.3449 24.3228 10.3449 23.4909C10.3448 23.4182 10.3535 23.3459 10.3708 23.2753H14.6294C14.6467 23.3459 14.6554 23.4182 14.6553 23.4909Z" fill="#393F4A"/>
<path d="M5.06365 16.8108C4.43182 16.8456 3.8063 16.6698 3.28521 16.3108C3.15549 16.2191 3.08672 16.0635 3.10625 15.9058C3.12579 15.7482 3.23045 15.614 3.37863 15.5568C3.5268 15.4995 3.69446 15.5284 3.81495 15.6319C4.43305 16.1134 5.8214 16.0479 7.62398 15.453C9.25344 14.8933 10.8143 14.1508 12.2766 13.2397C12.8438 12.8948 13.3972 12.5332 13.9274 12.1677C16.0481 10.7332 17.9655 9.01922 19.6278 7.07203C21.0338 5.35867 21.7343 3.82937 21.5019 2.98067C21.4409 2.75172 21.5761 2.51644 21.8046 2.45388C22.0332 2.39133 22.2693 2.52497 22.3334 2.75308C22.7373 4.22851 21.4476 6.21341 20.2946 7.61858C18.5812 9.62787 16.6045 11.3967 14.4179 12.8772C13.8761 13.2522 13.3067 13.622 12.7248 13.9767C11.2057 14.9222 9.58427 15.6925 7.89165 16.2729C6.98178 16.5948 6.02817 16.7762 5.06365 16.8108Z" fill="#F29C1F"/>
<path d="M19.9351 16.8138C18.9697 16.781 18.0153 16.598 17.1062 16.2716C15.4147 15.6912 13.7944 14.9212 12.2761 13.9763C11.6933 13.6211 11.1239 13.2513 10.5821 12.8759C8.39541 11.3954 6.41852 9.6266 4.705 7.61729C3.53819 6.19488 2.23949 4.19015 2.67914 2.71257C2.74829 2.48606 2.98724 2.35776 3.21425 2.42526C3.44125 2.49276 3.57128 2.73077 3.50543 2.95826C3.255 3.80265 3.95285 5.34015 5.3731 7.07074C7.03514 9.01802 8.95227 10.7322 11.0726 12.1668C11.6011 12.5328 12.1563 12.894 12.7244 13.2397C14.1857 14.1503 15.7455 14.8924 17.3739 15.4517C19.2614 16.0746 20.7183 16.1125 21.273 15.5535C21.4409 15.3846 21.7138 15.3837 21.8827 15.5515C22.0516 15.7194 22.0525 15.9923 21.8847 16.1612C21.3491 16.6322 20.6463 16.8674 19.9351 16.8138Z" fill="#F29C1F"/>
<path d="M3.23277 17.2414C4.06595 17.2414 4.74138 16.566 4.74138 15.7328C4.74138 14.8996 4.06595 14.2242 3.23277 14.2242C2.39958 14.2242 1.72416 14.8996 1.72416 15.7328C1.72416 16.566 2.39958 17.2414 3.23277 17.2414Z" fill="#3B97D3"/>
<path d="M3.23277 3.87905C4.06595 3.87905 4.74138 3.20362 4.74138 2.37044C4.74138 1.53726 4.06595 0.861826 3.23277 0.861826C2.39958 0.861826 1.72416 1.53726 1.72416 2.37044C1.72416 3.20362 2.39958 3.87905 3.23277 3.87905Z" fill="#3B97D3"/>
<path d="M21.7671 17.2414C22.6003 17.2414 23.2757 16.566 23.2757 15.7328C23.2757 14.8996 22.6003 14.2242 21.7671 14.2242C20.9339 14.2242 20.2584 14.8996 20.2584 15.7328C20.2584 16.566 20.9339 17.2414 21.7671 17.2414Z" fill="#3B97D3"/>
<path d="M21.7671 3.87905C22.6003 3.87905 23.2757 3.20362 23.2757 2.37044C23.2757 1.53726 22.6003 0.861826 21.7671 0.861826C20.9339 0.861826 20.2584 1.53726 20.2584 2.37044C20.2584 3.20362 20.9339 3.87905 21.7671 3.87905Z" fill="#3B97D3"/>
<path d="M7.10564 7.21666C6.95619 7.21666 6.81741 7.13924 6.73889 7.01207C6.66038 6.8849 6.65334 6.72614 6.7203 6.59253C7.52968 4.97156 8.9823 3.76478 10.7242 3.26625C10.874 3.21857 11.0379 3.25625 11.1518 3.36458C11.2658 3.4729 11.3117 3.63468 11.2717 3.78672C11.2317 3.93877 11.112 4.05696 10.9595 4.09512C9.45049 4.52766 8.19228 5.57367 7.49141 6.9783C7.41839 7.12444 7.26901 7.21674 7.10564 7.21666Z" fill="white"/>
</g>
<defs>
<clipPath id="clip0_129_4329">
<rect width="24.2489" height="24.2489" fill="white" transform="scale(1.03097)"/>
</clipPath>
</defs>
</svg>
