<svg width="24" height="24" viewBox="0 0 24 24" fill="none" xmlns="http://www.w3.org/2000/svg">
<rect width="24" height="24" rx="4" fill="#FFF4F2"/>
<g clip-path="url(#clip0_129_4278)">
<path d="M12.0034 15.2068C12.0034 15.388 11.8987 15.5526 11.7348 15.6294C11.6715 15.6594 11.6036 15.6739 11.5362 15.6739C11.4294 15.6739 11.3236 15.6372 11.2381 15.5663L8.68455 13.4503H7.32451C7.06659 13.4505 6.85742 13.2412 6.85742 12.9833V11.1224C6.85742 10.8643 7.06659 10.6552 7.32451 10.6552H8.68466L11.2382 8.53915C11.3777 8.42351 11.5712 8.39886 11.7349 8.47625C11.8987 8.55308 12.0035 8.71781 12.0035 8.89889L12.0034 15.2068ZM13.7984 14.4769C13.7871 14.4777 13.7761 14.4781 13.7648 14.4781C13.6415 14.4781 13.5225 14.4294 13.4346 14.3414L13.3721 14.2787C13.2083 14.1152 13.1891 13.8561 13.327 13.6702C13.6768 13.1986 13.8615 12.6395 13.8615 12.053C13.8615 11.4222 13.6518 10.8305 13.2552 10.3418C13.1042 10.1561 13.1181 9.88636 13.2873 9.71721L13.3497 9.65475C13.443 9.56144 13.568 9.51059 13.7034 9.51866C13.8351 9.52529 13.9582 9.58731 14.0418 9.68946C14.592 10.3627 14.8826 11.1802 14.8826 12.0531C14.8826 12.8661 14.6256 13.64 14.1392 14.2907C14.0579 14.3992 13.9336 14.4673 13.7984 14.4769ZM15.7296 15.9204C15.6451 16.0202 15.523 16.0801 15.3922 16.0857C15.3858 16.0859 15.3792 16.0861 15.3726 16.0861C15.2489 16.0861 15.1302 16.0372 15.0423 15.9494L14.9809 15.888C14.8095 15.7166 14.7978 15.4426 14.9537 15.2571C15.707 14.3611 16.1221 13.2233 16.1221 12.053C16.1221 10.8357 15.6777 9.66382 14.8713 8.75329C14.7077 8.56845 14.716 8.28864 14.89 8.11396L14.9513 8.0526C15.0422 7.96129 15.1602 7.91098 15.2957 7.9153C15.4242 7.91894 15.5459 7.97577 15.6313 8.07195C16.6062 9.16953 17.1431 10.5835 17.1431 12.053C17.1434 13.4669 16.6413 14.8404 15.7296 15.9204Z" fill="#FF6652"/>
</g>
<defs>
<clipPath id="clip0_129_4278">
<rect width="10.2857" height="10.2857" fill="white" transform="translate(6.85742 6.85742)"/>
</clipPath>
</defs>
</svg>
