<svg width="171" height="171" viewBox="0 0 171 171" fill="none" xmlns="http://www.w3.org/2000/svg">
<g filter="url(#filter0_d_129_4092)">
<rect x="70.2558" y="45.1644" width="30.4884" height="30.4884" rx="5" fill="white"/>
</g>
<g clip-path="url(#clip0_129_4092)">
<path d="M85.4096 54.6514C84.5644 55.2459 83.6064 55.9197 83.0931 57.0344C82.2015 58.9793 84.9174 61.1008 85.0335 61.1902C85.0605 61.2109 85.0928 61.2213 85.125 61.2213C85.1592 61.2213 85.1934 61.2096 85.2212 61.1863C85.2751 61.1412 85.2904 61.0646 85.258 61.0022C85.2482 60.9833 84.2733 59.0897 84.3095 57.7312C84.3224 57.258 84.9845 56.7213 85.6855 56.153C86.3276 55.6325 87.0554 55.0426 87.4812 54.3525C88.416 52.8335 87.377 51.3398 87.3664 51.3249C87.3251 51.2669 87.2489 51.2459 87.1838 51.2745C87.1187 51.3032 87.0827 51.3736 87.0976 51.4431C87.0997 51.453 87.3017 52.4408 86.7395 53.4584C86.5079 53.879 85.999 54.2369 85.4096 54.6514Z" fill="#DB380E"/>
<path d="M88.9708 55.3217C89.0304 55.2768 89.048 55.1949 89.0119 55.1295C88.9758 55.0641 88.8972 55.0353 88.8274 55.0618C88.6838 55.1164 85.3111 56.4164 85.3111 57.9873C85.3111 59.0701 85.7736 59.6421 86.1114 60.0598C86.2439 60.2237 86.3582 60.3652 86.3959 60.486C86.502 60.8341 86.2506 61.4633 86.1449 61.6763C86.1144 61.7376 86.1294 61.8118 86.1812 61.8566C86.2092 61.8808 86.2442 61.893 86.2792 61.893C86.309 61.893 86.339 61.8842 86.3648 61.8662C86.4228 61.8259 87.7821 60.8648 87.5383 59.707C87.4475 59.2669 87.2312 58.9453 87.0404 58.6616C86.7448 58.2219 86.5313 57.9044 86.8552 57.3178C87.2347 56.6337 88.9534 55.3347 88.9708 55.3217Z" fill="#DB380E"/>
<path d="M80.1915 61.9176C80.1337 62.0907 80.161 62.2624 80.2704 62.4143C80.636 62.9219 81.9311 63.2014 83.9171 63.2014C83.9172 63.2014 83.9173 63.2014 83.9174 63.2014C84.1865 63.2014 84.4706 63.1961 84.7616 63.1857C87.937 63.072 89.1148 62.0828 89.1634 62.0407C89.2163 61.9949 89.2305 61.9186 89.1975 61.8568C89.1646 61.7951 89.0936 61.7641 89.0258 61.7828C87.9074 62.0881 85.8192 62.1965 84.3707 62.1965C82.75 62.1965 81.9246 62.0798 81.7225 61.9935C81.8262 61.8512 82.4657 61.5969 83.2582 61.441C83.334 61.4262 83.386 61.3562 83.3785 61.2794C83.371 61.2026 83.3065 61.144 83.2293 61.144C82.7647 61.144 80.4351 61.1813 80.1915 61.9176Z" fill="#73A1FB"/>
<path d="M90.8168 60.8987C90.1618 60.8987 89.5408 61.227 89.5146 61.2409C89.4541 61.2733 89.4233 61.3428 89.4399 61.4095C89.4566 61.4762 89.5166 61.523 89.5853 61.5231C89.5992 61.5231 90.9823 61.5344 91.1076 62.3247C91.2186 63.0065 89.7989 64.1111 89.2425 64.4793C89.1824 64.519 89.1591 64.5958 89.187 64.6623C89.2107 64.7189 89.2658 64.7542 89.3252 64.7542C89.3355 64.7542 89.346 64.7532 89.3565 64.7509C89.4885 64.7227 92.5865 64.04 92.259 62.2362C92.0591 61.1308 91.3644 60.8987 90.8168 60.8987Z" fill="#73A1FB"/>
<path d="M88.6925 64.2587C88.7033 64.2009 88.6792 64.1421 88.6311 64.1083L87.8883 63.588C87.8521 63.5627 87.8063 63.5547 87.7638 63.5659C87.756 63.5679 86.9792 63.7721 85.8514 63.8974C85.4038 63.9476 84.9024 63.9741 84.4014 63.9741C83.2739 63.9741 82.5367 63.8416 82.4293 63.7444C82.4151 63.7171 82.4196 63.7047 82.4221 63.6978C82.4417 63.6436 82.5462 63.5791 82.6136 63.5536C82.688 63.5261 82.7281 63.4453 82.705 63.3694C82.6819 63.2934 82.6036 63.2487 82.5264 63.2672C81.7812 63.447 81.4169 63.6985 81.4434 64.0146C81.4905 64.575 82.7885 64.8627 83.886 64.9387C84.0438 64.9495 84.2144 64.955 84.3931 64.955C84.3932 64.955 84.3933 64.955 84.3934 64.955C86.2182 64.955 88.5576 64.3824 88.581 64.3766C88.6381 64.3627 88.6816 64.3165 88.6925 64.2587Z" fill="#73A1FB"/>
<path d="M83.0918 65.4613C83.1481 65.4247 83.173 65.3551 83.153 65.2911C83.1331 65.227 83.0732 65.1849 83.0059 65.1858C82.906 65.1885 82.0288 65.2281 81.9673 65.7866C81.9488 65.9535 81.9966 66.1061 82.1095 66.2399C82.4245 66.6132 83.2748 66.835 84.7085 66.9181C84.8781 66.9283 85.0503 66.9334 85.2206 66.9334C87.0433 66.9334 88.2709 66.3627 88.3223 66.3384C88.3721 66.3149 88.405 66.2659 88.4079 66.2109C88.4108 66.1558 88.3834 66.1036 88.3363 66.0749L87.3976 65.5018C87.365 65.4819 87.326 65.4753 87.2888 65.4829C87.2829 65.4842 86.6869 65.6078 85.7873 65.7299C85.6171 65.7531 85.4039 65.7648 85.1538 65.7648C84.2553 65.7648 83.2558 65.618 83.0641 65.5219C83.0613 65.504 83.0649 65.4812 83.0918 65.4613Z" fill="#73A1FB"/>
<path d="M84.3714 68.6565C88.5464 68.653 90.7872 67.9105 91.2189 67.4433C91.3717 67.278 91.3882 67.1215 91.3752 67.0193C91.3432 66.7678 91.114 66.6138 91.0881 66.5971C91.0254 66.5568 90.9413 66.5673 90.8924 66.6237C90.8436 66.6801 90.8425 66.7625 90.8914 66.8188C90.9178 66.8527 90.933 66.9094 90.856 66.9864C90.6834 67.1476 88.9429 67.6369 86.0449 67.7838C85.6479 67.8045 85.2316 67.815 84.8074 67.815C82.2127 67.815 80.3138 67.4596 80.0645 67.2525C80.1605 67.1145 80.8322 66.8939 81.5466 66.7691C81.6271 66.7551 81.6814 66.6793 81.669 66.5985C81.6565 66.5178 81.5821 66.4622 81.5007 66.4728C81.4806 66.4755 81.4122 66.4796 81.333 66.4845C80.1544 66.5564 78.7924 66.7168 78.7213 67.3241C78.6997 67.5091 78.7547 67.6771 78.8848 67.8233C79.2031 68.181 80.118 68.6565 84.3712 68.6565C84.3713 68.6565 84.3713 68.6565 84.3714 68.6565Z" fill="#73A1FB"/>
<path d="M92.039 67.5745C91.98 67.5473 91.9102 67.561 91.8662 67.6086C91.8601 67.6152 91.2324 68.2715 89.345 68.657C88.6225 68.8018 87.2662 68.8752 85.3139 68.8752C83.358 68.8752 81.4967 68.7982 81.4782 68.7974C81.4004 68.7936 81.334 68.8502 81.3234 68.9267C81.3128 69.0032 81.3621 69.0753 81.4371 69.0931C81.4565 69.0977 83.407 69.5547 86.074 69.5547C87.3531 69.5547 88.5978 69.4508 89.7736 69.2458C91.966 68.8615 92.1194 67.7744 92.1249 67.7283C92.1326 67.6639 92.0979 67.6018 92.039 67.5745Z" fill="#73A1FB"/>
</g>
<defs>
<filter id="filter0_d_129_4092" x="0" y="0" width="171" height="171" filterUnits="userSpaceOnUse" color-interpolation-filters="sRGB">
<feFlood flood-opacity="0" result="BackgroundImageFix"/>
<feColorMatrix in="SourceAlpha" type="matrix" values="0 0 0 0 0 0 0 0 0 0 0 0 0 0 0 0 0 0 127 0" result="hardAlpha"/>
<feOffset dy="25"/>
<feGaussianBlur stdDeviation="35"/>
<feColorMatrix type="matrix" values="0 0 0 0 0.0392157 0 0 0 0 0.0117647 0 0 0 0 0.235294 0 0 0 0.15 0"/>
<feBlend mode="normal" in2="BackgroundImageFix" result="effect1_dropShadow_129_4092"/>
<feBlend mode="normal" in="SourceGraphic" in2="effect1_dropShadow_129_4092" result="shape"/>
</filter>
<clipPath id="clip0_129_4092">
<rect width="18.2264" height="18.2264" fill="white" transform="translate(76.3537 51.2618) scale(1.00365)"/>
</clipPath>
</defs>
</svg>
