<svg width="36" height="36" viewBox="0 0 36 36" fill="none" xmlns="http://www.w3.org/2000/svg">
<circle cx="18" cy="18" r="18" fill="#FF6652"/>
<path d="M18.0004 11.4531C16.2228 11.4531 15.9997 11.4609 15.3016 11.4927C14.6048 11.5246 14.1291 11.6349 13.713 11.7968C13.2825 11.9639 12.9173 12.1876 12.5535 12.5515C12.1894 12.9154 11.9658 13.2805 11.7981 13.7109C11.6358 14.1272 11.5254 14.603 11.494 15.2995C11.4628 15.9977 11.4546 16.2209 11.4546 17.9986C11.4546 19.7762 11.4625 19.9986 11.4941 20.6968C11.5262 21.3936 11.6365 21.8693 11.7982 22.2854C11.9655 22.7159 12.1892 23.0811 12.5531 23.4449C12.9168 23.809 13.2819 24.0332 13.7122 24.2004C14.1286 24.3623 14.6044 24.4726 15.301 24.5045C15.9992 24.5363 16.2221 24.544 17.9996 24.544C19.7773 24.544 19.9997 24.5363 20.6979 24.5045C21.3947 24.4726 21.8708 24.3623 22.2873 24.2004C22.7176 24.0332 23.0822 23.809 23.4459 23.4449C23.81 23.0811 24.0336 22.7159 24.2013 22.2856C24.3622 21.8693 24.4727 21.3935 24.5054 20.6969C24.5368 19.9988 24.545 19.7762 24.545 17.9986C24.545 16.2209 24.5368 15.9978 24.5054 15.2997C24.4727 14.6029 24.3622 14.1272 24.2013 13.711C24.0336 13.2805 23.81 12.9154 23.4459 12.5515C23.0818 12.1874 22.7177 11.9638 22.2869 11.7968C21.8696 11.6349 21.3937 11.5246 20.6969 11.4927C19.9987 11.4609 19.7765 11.4531 17.9983 11.4531H18.0004ZM17.4132 12.6327C17.5875 12.6324 17.7819 12.6327 18.0004 12.6327C19.748 12.6327 19.9551 12.6389 20.6452 12.6703C21.2834 12.6995 21.6297 12.8061 21.8605 12.8957C22.1659 13.0144 22.3837 13.1562 22.6126 13.3853C22.8417 13.6144 22.9835 13.8325 23.1024 14.138C23.192 14.3684 23.2988 14.7148 23.3278 15.353C23.3592 16.043 23.366 16.2503 23.366 17.9971C23.366 19.7439 23.3592 19.9512 23.3278 20.6412C23.2986 21.2793 23.192 21.6257 23.1024 21.8562C22.9838 22.1616 22.8417 22.3791 22.6126 22.6081C22.3835 22.8372 22.166 22.979 21.8605 23.0976C21.63 23.1876 21.2834 23.294 20.6452 23.3232C19.9552 23.3545 19.748 23.3613 18.0004 23.3613C16.2527 23.3613 16.0455 23.3545 15.3556 23.3232C14.7174 23.2937 14.371 23.1871 14.1402 23.0975C13.8347 22.9788 13.6166 22.837 13.3875 22.6079C13.1584 22.3788 13.0166 22.1612 12.8977 21.8556C12.8081 21.6252 12.7013 21.2788 12.6723 20.6406C12.6409 19.9506 12.6346 19.7433 12.6346 17.9954C12.6346 16.2475 12.6409 16.0414 12.6723 15.3514C12.7015 14.7132 12.8081 14.3668 12.8977 14.1361C13.0163 13.8306 13.1584 13.6124 13.3875 13.3834C13.6166 13.1543 13.8347 13.0124 14.1402 12.8935C14.3709 12.8035 14.7174 12.6972 15.3556 12.6679C15.9594 12.6406 16.1934 12.6324 17.4132 12.631V12.6327ZM21.4942 13.7195C21.0606 13.7195 20.7088 14.0709 20.7088 14.5047C20.7088 14.9383 21.0606 15.2901 21.4942 15.2901C21.9278 15.2901 22.2796 14.9383 22.2796 14.5047C22.2796 14.071 21.9278 13.7192 21.4942 13.7192V13.7195ZM18.0004 14.6372C16.1441 14.6372 14.6391 16.1423 14.6391 17.9986C14.6391 19.8549 16.1441 21.3593 18.0004 21.3593C19.8567 21.3593 21.3611 19.8549 21.3611 17.9986C21.3611 16.1423 19.8565 14.6372 18.0003 14.6372H18.0004ZM18.0004 15.8168C19.2053 15.8168 20.1821 16.7935 20.1821 17.9986C20.1821 19.2035 19.2053 20.1804 18.0004 20.1804C16.7954 20.1804 15.8186 19.2035 15.8186 17.9986C15.8186 16.7935 16.7954 15.8168 18.0004 15.8168Z" fill="white"/>
</svg>
